<svg width="148" height="27" viewBox="0 0 148 27" fill="none" xmlns="http://www.w3.org/2000/svg">
<path fill-rule="evenodd" clip-rule="evenodd" d="M12.5243 0.0141367C10.8164 0.180604 9.43645 0.524829 8.09226 1.11973C7.10359 1.55724 5.91875 2.24458 5.63794 2.54348C5.35856 2.84086 5.54213 3.32712 5.95821 3.39207C6.11687 3.41682 6.21406 3.37265 6.72043 3.04568C7.40043 2.60654 8.45527 2.07732 9.20028 1.80143C9.73255 1.6043 11.0449 1.2499 11.2425 1.2499C11.3473 1.2499 11.3475 1.25264 11.2527 1.39499C10.3981 2.67755 9.79787 4.26419 9.30919 6.53231L9.2226 6.93415L8.86956 7.02126C8.09754 7.21173 7.51245 7.76385 7.25539 8.54437C7.227 8.63063 7.05505 8.6367 4.63793 8.6367C3.21507 8.6367 2.05091 8.62156 2.05091 8.60299C2.05091 8.50859 2.66196 7.33604 2.92693 6.92191C3.30519 6.33086 3.33104 6.12572 3.05789 5.88169C2.90657 5.74646 2.84958 5.72693 2.67452 5.75041C2.40321 5.78682 2.36248 5.82618 2.0164 6.38562C-0.768105 10.8871 -0.660943 16.6275 2.28966 21.0259L2.51412 21.3604L2.35894 21.6612C2.14478 22.0765 2.06537 22.5731 2.14177 23.0192C2.39672 24.5075 3.9986 25.3191 5.32791 24.6336L5.62649 24.4796L6.09434 24.7827C8.23915 26.1727 10.4967 26.8866 13.0474 26.9815C17.7553 27.1566 22.1958 24.8441 24.8259 20.8476C26.3189 18.5789 27.0932 15.7857 26.991 13.0379C26.8962 10.4871 26.1823 8.22958 24.7923 6.08477L24.4891 5.61692L24.6431 5.31834C24.8562 4.9052 24.9354 4.40791 24.8591 3.96259C24.604 2.47305 23.0023 1.66266 21.6708 2.34937L21.37 2.50455L21.0354 2.28009C19.3563 1.15366 17.4693 0.429275 15.3999 0.116602C14.8744 0.0371941 12.9802 -0.0302897 12.5243 0.0141367ZM13.9623 1.16891C15.12 1.70788 16.2774 4.32492 16.8217 7.63421C16.8813 7.99695 16.9431 8.37115 16.959 8.4657L16.9878 8.63765L14.2627 8.62399L11.5376 8.61032L11.4412 8.35637C11.2617 7.88325 10.9285 7.52673 10.2873 7.12177C10.2562 7.1022 10.4224 6.33582 10.6339 5.52369C11.3295 2.85104 12.4874 1.0399 13.5005 1.0399C13.602 1.0399 13.8099 1.09794 13.9623 1.16891ZM16.5691 1.42797C16.9562 1.5259 17.5104 1.69395 17.8006 1.80143C19.004 2.24706 20.7245 3.21278 20.651 3.40136C20.5231 3.72944 20.4549 4.15755 20.4809 4.46849C20.6094 6.00441 22.1192 6.91373 23.5894 6.34062C23.6602 6.31297 23.7456 6.40631 23.9842 6.77196C24.2724 7.21353 24.95 8.48886 24.95 8.58974C24.95 8.6167 23.4813 8.6367 21.5042 8.6367H18.0583L17.914 7.75292C17.4938 5.17899 16.7967 3.03091 15.9577 1.72476C15.8365 1.53614 15.7194 1.35215 15.6975 1.31585C15.6347 1.21217 15.8003 1.23349 16.5691 1.42797ZM23.2152 3.29678C24.0757 3.74632 24.0255 4.96303 23.1297 5.37221C22.3619 5.72292 21.4504 5.05742 21.5322 4.20588C21.5878 3.62686 22.1071 3.14936 22.6812 3.14936C22.8543 3.14936 23.0212 3.19542 23.2152 3.29678ZM3.86595 4.06743C3.66857 4.26482 3.63923 4.43488 3.76175 4.67183C3.94336 5.02297 4.48502 5.02297 4.66663 4.67183C4.80666 4.401 4.72135 4.09302 4.47035 3.96323C4.2334 3.84071 4.06334 3.87005 3.86595 4.06743ZM9.89628 8.1372C10.4481 8.4122 10.6942 9.07157 10.447 9.61281C10.0358 10.513 8.82287 10.5587 8.36695 9.69117C8.23884 9.44735 8.21815 9.35459 8.23578 9.10244C8.29461 8.26082 9.14836 7.76453 9.89628 8.1372ZM7.25539 9.78429C7.44618 10.3636 7.89044 10.8922 8.39275 11.1376L8.69323 11.2844L8.66305 12.7438C8.63604 14.049 8.67366 15.2956 8.78631 16.8281L8.82023 17.2898H5.22861H1.63699L1.58148 17.1183C1.46609 16.7619 1.26168 15.8393 1.17188 15.2696C1.10218 14.8271 1.07907 14.3723 1.08013 13.4645C1.08187 12.0229 1.18444 11.2709 1.55705 9.96896L1.6363 9.69196H4.43062C7.04518 9.69196 7.22695 9.69792 7.25539 9.78429ZM17.113 9.75791C17.2222 10.0946 17.3322 13.4888 17.2752 14.7644L17.2359 15.6421L17.0617 15.6704C16.7422 15.7222 16.303 15.9812 16.0053 16.2933C15.7423 16.569 15.4545 17.0541 15.4532 17.2239C15.4524 17.3204 9.91918 17.3204 9.88789 17.2239C9.77877 16.8876 9.66871 13.4934 9.72564 12.22L9.76474 11.3449L10.0223 11.2789C10.3475 11.1955 10.8433 10.8774 11.065 10.6099C11.2184 10.4248 11.4339 10.0289 11.5145 9.78429C11.543 9.69792 11.7237 9.69196 14.3183 9.69196C16.4904 9.69196 17.0963 9.70626 17.113 9.75791ZM25.4194 9.86344C25.5355 10.222 25.7394 11.1437 25.8283 11.7122C25.9593 12.5484 25.9596 14.3976 25.8291 15.2321C25.732 15.8529 25.5881 16.5201 25.445 17.0128L25.3646 17.2898H22.5573H19.75L19.5988 16.943C19.4073 16.5031 19.03 16.0888 18.6241 15.8724L18.3075 15.7038L18.3378 14.2412C18.3649 12.9327 18.3274 11.6875 18.2146 10.1536L18.1807 9.69196H21.7723H25.3639L25.4194 9.86344ZM18.0942 16.8018C18.2817 16.8968 18.4351 17.0258 18.539 17.1756C18.6823 17.3824 18.6976 17.4443 18.6976 17.8174C18.6976 18.1906 18.6823 18.2525 18.539 18.4593C18.3535 18.7268 17.9075 18.9784 17.6197 18.9779C16.9527 18.9769 16.4345 18.4695 16.4345 17.8174C16.4345 16.9437 17.3135 16.4058 18.0942 16.8018ZM9.08689 19.2289C9.51544 21.8539 10.2154 23.985 11.093 25.3362C11.2916 25.6418 11.3173 25.7081 11.2423 25.7207C11.0998 25.7445 9.78273 25.396 9.20028 25.1803C7.99687 24.7347 6.27643 23.769 6.34993 23.5804C6.47782 23.2523 6.54605 22.8242 6.52003 22.5133C6.3915 20.9774 4.88169 20.068 3.41156 20.6412C3.34075 20.6688 3.25533 20.5755 3.01668 20.2098C2.72849 19.7682 2.05091 18.4929 2.05091 18.392C2.05091 18.3651 3.51957 18.3451 5.49675 18.3451H8.94259L9.08689 19.2289ZM15.4532 18.411C15.4535 18.4473 15.512 18.6021 15.5832 18.7551C15.7432 19.0988 16.1687 19.5567 16.483 19.7235C16.6128 19.7923 16.719 19.8758 16.719 19.909C16.719 20.0308 16.3984 21.3769 16.2392 21.9239C15.6458 23.9617 14.7874 25.4287 13.9641 25.812C13.6125 25.9757 13.3888 25.9759 13.0386 25.8129C11.8796 25.2733 10.7659 22.7565 10.1776 19.3476C10.0899 18.8397 10.0182 18.4064 10.0182 18.3846C10.0181 18.3629 11.2409 18.3451 12.7354 18.3451C14.8738 18.3451 15.4528 18.3591 15.4532 18.411ZM24.95 18.3795C24.95 18.4501 24.3256 19.6532 24.1046 20.0082C23.1224 21.587 21.5966 23.1128 20.0178 24.0951C19.4646 24.4392 18.5003 24.9109 17.851 25.1549C17.2754 25.3712 15.969 25.7319 15.7609 25.7319C15.6534 25.7319 15.6532 25.7295 15.7483 25.5868C16.5949 24.316 17.2211 22.6619 17.6924 20.4506L17.7778 20.0498L18.1058 19.9586C18.8119 19.7623 19.3205 19.3308 19.5988 18.6919L19.75 18.3451H22.35C23.78 18.3451 24.95 18.3606 24.95 18.3795ZM4.85368 21.6583C5.73682 22.1196 5.64876 23.3997 4.70921 23.7584C3.95634 24.046 3.11408 23.4172 3.17054 22.6097C3.21328 21.9985 3.72328 21.5108 4.31972 21.5108C4.49283 21.5108 4.65967 21.5569 4.85368 21.6583Z" fill="#8E2424"/>
<path d="M47.8097 13.9499C47.8097 15.3476 47.554 16.5493 47.0426 17.555C46.5313 18.5564 45.8303 19.3277 44.9396 19.8689C44.0533 20.4059 43.0455 20.6743 41.9162 20.6743C40.7827 20.6743 39.7706 20.4059 38.88 19.8689C37.9936 19.3277 37.2947 18.5543 36.7834 17.5486C36.272 16.5429 36.0163 15.3434 36.0163 13.9499C36.0163 12.5522 36.272 11.3526 36.7834 10.3512C37.2947 9.3455 37.9936 8.5742 38.88 8.03726C39.7706 7.49607 40.7827 7.22547 41.9162 7.22547C43.0455 7.22547 44.0533 7.49607 44.9396 8.03726C45.8303 8.5742 46.5313 9.3455 47.0426 10.3512C47.554 11.3526 47.8097 12.5522 47.8097 13.9499ZM45.8537 13.9499C45.8537 12.8846 45.6811 11.9875 45.3359 11.2589C44.995 10.5259 44.5263 9.97192 43.9297 9.59692C43.3374 9.21766 42.6662 9.02803 41.9162 9.02803C41.1619 9.02803 40.4886 9.21766 39.8963 9.59692C39.304 9.97192 38.8352 10.5259 38.4901 11.2589C38.1491 11.9875 37.9787 12.8846 37.9787 13.9499C37.9787 15.0152 38.1491 15.9144 38.4901 16.6473C38.8352 17.376 39.304 17.93 39.8963 18.3093C40.4886 18.6843 41.1619 18.8718 41.9162 18.8718C42.6662 18.8718 43.3374 18.6843 43.9297 18.3093C44.5263 17.93 44.995 17.376 45.3359 16.6473C45.6811 15.9144 45.8537 15.0152 45.8537 13.9499ZM50.1188 24.1772V10.6772H51.9853V12.2688H52.1451C52.2559 12.0643 52.4157 11.8277 52.6245 11.5593C52.8333 11.2908 53.123 11.0564 53.4938 10.8562C53.8645 10.6516 54.3546 10.5493 54.964 10.5493C55.7566 10.5493 56.464 10.7496 57.0861 11.1502C57.7083 11.5508 58.1962 12.1282 58.5499 12.8824C58.9078 13.6367 59.0868 14.5444 59.0868 15.6054C59.0868 16.6665 58.91 17.5763 58.5563 18.3348C58.2026 19.0891 57.7168 19.6708 57.0989 20.0799C56.481 20.4847 55.7757 20.6871 54.9831 20.6871C54.3865 20.6871 53.8986 20.587 53.5194 20.3867C53.1444 20.1864 52.8503 19.952 52.6373 19.6836C52.4242 19.4151 52.2601 19.1765 52.1451 18.9677H52.03V24.1772H50.1188ZM51.9917 15.5863C51.9917 16.2766 52.0918 16.8817 52.2921 17.4016C52.4924 17.9215 52.7821 18.3285 53.1614 18.6225C53.5407 18.9123 54.0051 19.0572 54.5549 19.0572C55.1259 19.0572 55.6032 18.9059 55.9867 18.6033C56.3702 18.2965 56.66 17.881 56.856 17.3569C57.0563 16.8327 57.1564 16.2425 57.1564 15.5863C57.1564 14.9385 57.0584 14.3569 56.8624 13.8412C56.6706 13.3256 56.3809 12.9187 55.9931 12.6204C55.6096 12.3221 55.1301 12.1729 54.5549 12.1729C54.0009 12.1729 53.5321 12.3157 53.1486 12.6012C52.7694 12.8867 52.4817 13.2851 52.2857 13.7965C52.0897 14.3079 51.9917 14.9045 51.9917 15.5863ZM65.8113 10.6772V12.2113H60.4483V10.6772H65.8113ZM61.8865 8.32491H63.7978V17.6125C63.7978 17.9833 63.8532 18.2624 63.964 18.4499C64.0748 18.6331 64.2175 18.7589 64.3922 18.827C64.5712 18.891 64.7651 18.9229 64.9739 18.9229C65.1273 18.9229 65.2615 18.9123 65.3766 18.891C65.4917 18.8697 65.5811 18.8526 65.6451 18.8398L65.9902 20.4187C65.8794 20.4613 65.7218 20.5039 65.5172 20.5465C65.3127 20.5934 65.057 20.6189 64.7502 20.6232C64.2473 20.6317 63.7786 20.5422 63.3439 20.3547C62.9093 20.1672 62.5577 19.8775 62.2892 19.4854C62.0208 19.0934 61.8865 18.6012 61.8865 18.0089V8.32491ZM67.9254 20.4954V10.6772H69.8366V20.4954H67.9254ZM68.8906 9.16226C68.5582 9.16226 68.2727 9.05147 68.0341 8.82988C67.7997 8.60403 67.6825 8.33556 67.6825 8.02448C67.6825 7.70914 67.7997 7.44067 68.0341 7.21908C68.2727 6.99323 68.5582 6.8803 68.8906 6.8803C69.223 6.8803 69.5064 6.99323 69.7408 7.21908C69.9794 7.44067 70.0987 7.70914 70.0987 8.02448C70.0987 8.33556 69.9794 8.60403 69.7408 8.82988C69.5064 9.05147 69.223 9.16226 68.8906 9.16226ZM72.4078 20.4954V10.6772H74.2424V12.2752H74.3638C74.5684 11.734 74.9029 11.3121 75.3674 11.0096C75.8319 10.7027 76.388 10.5493 77.0357 10.5493C77.6919 10.5493 78.2417 10.7027 78.6848 11.0096C79.1323 11.3164 79.4625 11.7383 79.6756 12.2752H79.7779C80.0123 11.751 80.3851 11.3334 80.8965 11.0223C81.4078 10.707 82.0172 10.5493 82.7246 10.5493C83.6152 10.5493 84.3418 10.8285 84.9043 11.3867C85.4711 11.9449 85.7544 12.7866 85.7544 13.9116V20.4954H83.8432V14.0905C83.8432 13.4258 83.6621 12.9442 83.2999 12.6459C82.9377 12.3476 82.5051 12.1985 82.0023 12.1985C81.3801 12.1985 80.8965 12.3902 80.5513 12.7738C80.2061 13.153 80.0336 13.641 80.0336 14.2375V20.4954H78.1287V13.9691C78.1287 13.4364 77.9625 13.0081 77.6301 12.6843C77.2978 12.3604 76.8652 12.1985 76.3326 12.1985C75.9703 12.1985 75.6358 12.2944 75.329 12.4861C75.0265 12.6736 74.7814 12.9357 74.5939 13.2724C74.4107 13.609 74.3191 13.9989 74.3191 14.4421V20.4954H72.4078ZM94.5355 16.4236V10.6772H96.4531V20.4954H94.5739V18.7951H94.4716C94.2457 19.3192 93.8835 19.756 93.3849 20.1054C92.8906 20.4506 92.2749 20.6232 91.5376 20.6232C90.907 20.6232 90.3487 20.4847 89.8629 20.2077C89.3814 19.9265 89.0021 19.511 88.7251 18.9613C88.4524 18.4116 88.3161 17.7319 88.3161 16.9222V10.6772H90.2273V16.6921C90.2273 17.3611 90.4126 17.8938 90.7834 18.2901C91.1541 18.6864 91.6357 18.8846 92.228 18.8846C92.5859 18.8846 92.9418 18.7951 93.2955 18.6161C93.6534 18.4371 93.9496 18.1665 94.1839 17.8043C94.4226 17.4421 94.5398 16.9819 94.5355 16.4236ZM106.378 13.0742L104.646 13.381C104.574 13.1594 104.459 12.9485 104.301 12.7482C104.148 12.5479 103.939 12.3839 103.675 12.256C103.41 12.1282 103.08 12.0643 102.684 12.0643C102.143 12.0643 101.691 12.1857 101.329 12.4286C100.966 12.6672 100.785 12.9762 100.785 13.3554C100.785 13.6836 100.907 13.9478 101.15 14.1481C101.393 14.3483 101.785 14.5124 102.326 14.6402L103.885 14.9982C104.789 15.207 105.462 15.5287 105.905 15.9634C106.349 16.3981 106.57 16.9627 106.57 17.6573C106.57 18.2454 106.4 18.7695 106.059 19.2297C105.722 19.6857 105.251 20.0437 104.646 20.3036C104.045 20.5635 103.349 20.6935 102.556 20.6935C101.456 20.6935 100.559 20.4591 99.8649 19.9904C99.1703 19.5174 98.7441 18.8462 98.5865 17.9769L100.434 17.6956C100.549 18.1772 100.785 18.5415 101.143 18.7887C101.501 19.0316 101.968 19.153 102.543 19.153C103.17 19.153 103.67 19.0231 104.045 18.7631C104.42 18.4989 104.608 18.1772 104.608 17.7979C104.608 17.4911 104.493 17.2333 104.263 17.0245C104.037 16.8157 103.689 16.658 103.221 16.5515L101.559 16.1871C100.643 15.9783 99.965 15.6459 99.5261 15.19C99.0914 14.734 98.8741 14.1566 98.8741 13.4577C98.8741 12.8782 99.036 12.3711 99.3599 11.9364C99.6838 11.5018 100.131 11.163 100.702 10.9201C101.273 10.6729 101.927 10.5493 102.665 10.5493C103.726 10.5493 104.561 10.7795 105.17 11.2397C105.78 11.6956 106.182 12.3072 106.378 13.0742ZM106.843 9.10474V7.40445H116.975V9.10474H112.89V20.4954H110.922V9.10474H106.843ZM121.868 20.6935C120.901 20.6935 120.067 20.4868 119.369 20.0735C118.674 19.6559 118.137 19.0699 117.758 18.3157C117.383 17.5572 117.195 16.6687 117.195 15.6502C117.195 14.6445 117.383 13.7581 117.758 12.9911C118.137 12.2241 118.665 11.6253 119.343 11.1949C120.025 10.7645 120.822 10.5493 121.734 10.5493C122.288 10.5493 122.825 10.641 123.344 10.8242C123.864 11.0074 124.331 11.2951 124.744 11.6871C125.158 12.0792 125.484 12.5884 125.722 13.2148C125.961 13.837 126.08 14.5934 126.08 15.484V16.1616H118.276V14.7297H124.207C124.207 14.2269 124.105 13.7816 123.901 13.3938C123.696 13.0018 123.408 12.6928 123.038 12.467C122.671 12.2411 122.241 12.1282 121.746 12.1282C121.21 12.1282 120.741 12.2603 120.34 12.5245C119.944 12.7844 119.637 13.1253 119.42 13.5472C119.207 13.9648 119.1 14.4187 119.1 14.9087V16.0273C119.1 16.6836 119.215 17.2418 119.445 17.702C119.68 18.1623 120.006 18.5138 120.423 18.7567C120.841 18.9954 121.329 19.1147 121.887 19.1147C122.249 19.1147 122.58 19.0635 122.878 18.9613C123.176 18.8547 123.434 18.6971 123.651 18.4883C123.869 18.2795 124.035 18.0216 124.15 17.7148L125.959 18.0408C125.814 18.5735 125.554 19.0401 125.179 19.4407C124.808 19.837 124.342 20.1459 123.779 20.3675C123.221 20.5848 122.584 20.6935 121.868 20.6935ZM132.336 20.6935C131.386 20.6935 130.568 20.4783 129.882 20.0479C129.2 19.6133 128.676 19.0145 128.309 18.2518C127.943 17.489 127.76 16.6154 127.76 15.631C127.76 14.6339 127.947 13.7539 128.322 12.9911C128.697 12.2241 129.226 11.6253 129.907 11.1949C130.589 10.7645 131.393 10.5493 132.317 10.5493C133.063 10.5493 133.728 10.6878 134.312 10.9648C134.895 11.2375 135.366 11.6211 135.724 12.1154C136.086 12.6097 136.302 13.1871 136.37 13.8476H134.51C134.407 13.3874 134.173 12.9911 133.807 12.6587C133.444 12.3263 132.959 12.1601 132.349 12.1601C131.817 12.1601 131.35 12.3008 130.949 12.582C130.553 12.859 130.244 13.2553 130.023 13.7709C129.801 14.2823 129.69 14.8874 129.69 15.5863C129.69 16.3022 129.799 16.9201 130.016 17.44C130.233 17.9598 130.54 18.3625 130.937 18.6481C131.337 18.9336 131.808 19.0763 132.349 19.0763C132.711 19.0763 133.04 19.0103 133.334 18.8782C133.632 18.7418 133.881 18.5479 134.081 18.2965C134.286 18.0451 134.429 17.7425 134.51 17.3888H136.37C136.302 18.0238 136.095 18.5905 135.75 19.0891C135.405 19.5877 134.942 19.9797 134.363 20.2652C133.787 20.5508 133.112 20.6935 132.336 20.6935ZM140.325 14.6658V20.4954H138.414V7.40445H140.299V12.2752H140.421C140.651 11.7468 141.002 11.327 141.475 11.016C141.949 10.7049 142.566 10.5493 143.329 10.5493C144.002 10.5493 144.591 10.6878 145.093 10.9648C145.6 11.2418 145.993 11.6552 146.27 12.2049C146.551 12.7503 146.691 13.4322 146.691 14.2503V20.4954H144.78V14.4804C144.78 13.7603 144.595 13.202 144.224 12.8057C143.853 12.4052 143.338 12.2049 142.677 12.2049C142.225 12.2049 141.821 12.3008 141.463 12.4925C141.109 12.6843 140.83 12.9655 140.625 13.3363C140.425 13.7027 140.325 14.1459 140.325 14.6658Z" fill="#3A404E"/>
</svg>
